{
	"asset":{
		"generator":"Khronos glTF Blender I/O v4.3.47",
		"version":"2.0"
	},
	"scene":0,
	"scenes":[
		{
			"name":"Scene",
			"nodes":[
				0,
				1,
				2,
				3,
				4,
				5,
				6,
				7,
				8,
				9,
				10,
				11
			]
		}
	],
	"nodes":[
		{
			"mesh":0,
			"name":"Cube.001",
			"rotation":[
				0,
				0,
				-0.3249433636665344,
				0.9457334876060486
			],
			"scale":[
				2.139007568359375,
				4.411915302276611,
				2.139007568359375
			],
			"translation":[
				63.863250732421875,
				5.968223571777344,
				-76.09178161621094
			]
		},
		{
			"mesh":1,
			"name":"Plane"
		},
		{
			"mesh":2,
			"name":"Cube.002",
			"rotation":[
				0,
				0,
				-0.3249433636665344,
				0.9457334876060486
			],
			"scale":[
				2.139007568359375,
				4.411915302276611,
				2.139007568359375
			],
			"translation":[
				276.2562255859375,
				37.71537780761719,
				264.0567321777344
			]
		},
		{
			"mesh":3,
			"name":"Cube.003",
			"rotation":[
				-0.9807567000389099,
				-0.042001694440841675,
				-0.1853775680065155,
				0.04457983002066612
			],
			"scale":[
				2.139007568359375,
				4.411915302276611,
				2.139007568359375
			],
			"translation":[
				180.16744995117188,
				30.8968563079834,
				49.7249755859375
			]
		},
		{
			"mesh":4,
			"name":"Cube.004",
			"rotation":[
				-0.9807567000389099,
				-0.042001694440841675,
				-0.1853775680065155,
				0.04457983002066612
			],
			"scale":[
				2.139007568359375,
				4.411915302276611,
				2.139007568359375
			],
			"translation":[
				90.90632629394531,
				-29.860591888427734,
				-53.478187561035156
			]
		},
		{
			"mesh":5,
			"name":"Suzanne",
			"translation":[
				-2.490690231323242,
				1.9391484260559082,
				-2.8490734100341797
			]
		},
		{
			"mesh":6,
			"name":"Sphere",
			"translation":[
				3.664914608001709,
				2.0459892749786377,
				2.117549180984497
			]
		},
		{
			"mesh":7,
			"name":"Icosphere",
			"translation":[
				0.22451834380626678,
				2.481146812438965,
				-0.6464051008224487
			]
		},
		{
			"mesh":8,
			"name":"Cube",
			"translation":[
				-3.170624256134033,
				0.5719250440597534,
				-7.595280647277832
			]
		},
		{
			"mesh":9,
			"name":"Cylinder",
			"rotation":[
				-0.3845653235912323,
				-0.1139092817902565,
				-0.6116268634796143,
				0.6819433569908142
			],
			"translation":[
				-17.7947998046875,
				4.8246917724609375,
				10.290447235107422
			]
		},
		{
			"mesh":10,
			"name":"Cylinder.001",
			"rotation":[
				-0.1588137149810791,
				0.354607492685318,
				-0.7036846876144409,
				0.5948610305786133
			],
			"scale":[
				2.5808768272399902,
				4.469289779663086,
				4.310132026672363
			],
			"translation":[
				14.037097930908203,
				21.1585693359375,
				42.28143310546875
			]
		},
		{
			"mesh":11,
			"name":"Cylinder.002",
			"rotation":[
				0.6754410862922668,
				0.4983314871788025,
				0.20292247831821442,
				0.5042495727539062
			],
			"scale":[
				6.790630340576172,
				8.0390625,
				8.971883773803711
			],
			"translation":[
				-37.89487838745117,
				30.015838623046875,
				-119.03485870361328
			]
		}
	],
	"materials":[
		{
			"doubleSided":true,
			"name":"Material.001",
			"normalTexture":{
				"index":0
			},
			"occlusionTexture":{
				"index":1
			},
			"pbrMetallicRoughness":{
				"baseColorTexture":{
					"index":2
				},
				"metallicFactor":0,
				"metallicRoughnessTexture":{
					"index":1
				}
			}
		},
		{
			"doubleSided":true,
			"name":"Material.007",
			"pbrMetallicRoughness":{
				"baseColorFactor":[
					0.8001416921615601,
					0.24616369605064392,
					0.12439597398042679,
					1
				],
				"roughnessFactor":0.4150943458080292
			}
		},
		{
			"doubleSided":true,
			"name":"Material.009",
			"pbrMetallicRoughness":{
				"baseColorFactor":[
					0.800054669380188,
					0.012835722416639328,
					0.02315259724855423,
					1
				],
				"metallicFactor":0,
				"roughnessFactor":0.5613207817077637
			}
		},
		{
			"doubleSided":true,
			"name":"Material.010",
			"pbrMetallicRoughness":{
				"baseColorFactor":[
					0.07835720479488373,
					0.8000074625015259,
					0.011614203453063965,
					1
				],
				"metallicFactor":0,
				"roughnessFactor":0.5
			}
		},
		{
			"doubleSided":true,
			"name":"Material.008",
			"pbrMetallicRoughness":{
				"baseColorFactor":[
					0.800000011920929,
					0.800000011920929,
					0.800000011920929,
					1
				],
				"roughnessFactor":0
			}
		},
		{
			"doubleSided":true,
			"name":"Material",
			"pbrMetallicRoughness":{
				"baseColorFactor":[
					0.8001017570495605,
					0.7934098243713379,
					0.003678160486742854,
					1
				],
				"roughnessFactor":0.28773584961891174
			}
		},
		{
			"doubleSided":true,
			"name":"Material.011",
			"pbrMetallicRoughness":{
				"baseColorFactor":[
					0.8001017570495605,
					0.7934098243713379,
					0.003678160486742854,
					1
				],
				"metallicFactor":0,
				"roughnessFactor":0.12735849618911743
			}
		},
		{
			"doubleSided":true,
			"name":"Material.012",
			"pbrMetallicRoughness":{
				"baseColorFactor":[
					0.8001017570495605,
					0.7934098243713379,
					0.003678160486742854,
					1
				],
				"roughnessFactor":0.28773584961891174
			}
		}
	],
	"meshes":[
		{
			"name":"Cube.001",
			"primitives":[
				{
					"attributes":{
						"POSITION":0,
						"NORMAL":1,
						"TEXCOORD_0":2,
						"TANGENT":3
					},
					"indices":4,
					"material":0
				}
			]
		},
		{
			"name":"Plane",
			"primitives":[
				{
					"attributes":{
						"POSITION":5,
						"NORMAL":6,
						"TEXCOORD_0":7,
						"TANGENT":8
					},
					"indices":9,
					"material":0
				}
			]
		},
		{
			"name":"Cube.003",
			"primitives":[
				{
					"attributes":{
						"POSITION":10,
						"NORMAL":11,
						"TEXCOORD_0":12,
						"TANGENT":13
					},
					"indices":4,
					"material":0
				}
			]
		},
		{
			"name":"Cube.004",
			"primitives":[
				{
					"attributes":{
						"POSITION":14,
						"NORMAL":15,
						"TEXCOORD_0":16,
						"TANGENT":17
					},
					"indices":4,
					"material":0
				}
			]
		},
		{
			"name":"Cube.005",
			"primitives":[
				{
					"attributes":{
						"POSITION":18,
						"NORMAL":19,
						"TEXCOORD_0":20,
						"TANGENT":21
					},
					"indices":4,
					"material":0
				}
			]
		},
		{
			"name":"Suzanne",
			"primitives":[
				{
					"attributes":{
						"POSITION":22,
						"NORMAL":23,
						"TEXCOORD_0":24,
						"TANGENT":25
					},
					"indices":26,
					"material":1
				}
			]
		},
		{
			"name":"Sphere",
			"primitives":[
				{
					"attributes":{
						"POSITION":27,
						"NORMAL":28,
						"TEXCOORD_0":29,
						"TANGENT":30
					},
					"indices":31,
					"material":2
				}
			]
		},
		{
			"name":"Icosphere",
			"primitives":[
				{
					"attributes":{
						"POSITION":32,
						"NORMAL":33,
						"TEXCOORD_0":34,
						"TANGENT":35
					},
					"indices":36,
					"material":3
				}
			]
		},
		{
			"name":"Cube.006",
			"primitives":[
				{
					"attributes":{
						"POSITION":37,
						"NORMAL":38,
						"TEXCOORD_0":39,
						"TANGENT":40
					},
					"indices":41,
					"material":4
				}
			]
		},
		{
			"name":"Cylinder.003",
			"primitives":[
				{
					"attributes":{
						"POSITION":42,
						"NORMAL":43,
						"TEXCOORD_0":44
					},
					"indices":45,
					"material":5
				}
			]
		},
		{
			"name":"Cylinder.004",
			"primitives":[
				{
					"attributes":{
						"POSITION":46,
						"NORMAL":47,
						"TEXCOORD_0":48
					},
					"indices":45,
					"material":6
				}
			]
		},
		{
			"name":"Cylinder.005",
			"primitives":[
				{
					"attributes":{
						"POSITION":49,
						"NORMAL":50,
						"TEXCOORD_0":51
					},
					"indices":45,
					"material":7
				}
			]
		}
	],
	"textures":[
		{
			"sampler":0,
			"source":0
		},
		{
			"sampler":0,
			"source":1
		},
		{
			"sampler":0,
			"source":2
		}
	],
	"images":[
		{
			"mimeType":"image/png",
			"name":"Wall_Stone_025_normal",
			"uri":"Wall_Stone_025_normal.png"
		},
		{
			"mimeType":"image/png",
			"name":"Wall_Stone_025_ambientOcclusion-Wall_Stone_025_roughness",
			"uri":"Wall_Stone_025_ambientOcclusion-Wall_Stone_025_roughness.png"
		},
		{
			"mimeType":"image/png",
			"name":"Wall_Stone_025_basecolor",
			"uri":"Wall_Stone_025_basecolor.png"
		}
	],
	"accessors":[
		{
			"bufferView":0,
			"componentType":5126,
			"count":24,
			"max":[
				18.33724594116211,
				12.782669067382812,
				3.6332101821899414
			],
			"min":[
				-18.337265014648438,
				-12.782671928405762,
				-3.6332101821899414
			],
			"type":"VEC3"
		},
		{
			"bufferView":1,
			"componentType":5126,
			"count":24,
			"type":"VEC3"
		},
		{
			"bufferView":2,
			"componentType":5126,
			"count":24,
			"type":"VEC2"
		},
		{
			"bufferView":3,
			"componentType":5126,
			"count":24,
			"type":"VEC4"
		},
		{
			"bufferView":4,
			"componentType":5123,
			"count":36,
			"type":"SCALAR"
		},
		{
			"bufferView":5,
			"componentType":5126,
			"count":4,
			"max":[
				500,
				0,
				500
			],
			"min":[
				-500,
				0,
				-500
			],
			"type":"VEC3"
		},
		{
			"bufferView":6,
			"componentType":5126,
			"count":4,
			"type":"VEC3"
		},
		{
			"bufferView":7,
			"componentType":5126,
			"count":4,
			"type":"VEC2"
		},
		{
			"bufferView":8,
			"componentType":5126,
			"count":4,
			"type":"VEC4"
		},
		{
			"bufferView":9,
			"componentType":5123,
			"count":6,
			"type":"SCALAR"
		},
		{
			"bufferView":10,
			"componentType":5126,
			"count":24,
			"max":[
				18.33724594116211,
				12.782669067382812,
				3.6332101821899414
			],
			"min":[
				-18.337265014648438,
				-12.782671928405762,
				-3.6332101821899414
			],
			"type":"VEC3"
		},
		{
			"bufferView":11,
			"componentType":5126,
			"count":24,
			"type":"VEC3"
		},
		{
			"bufferView":12,
			"componentType":5126,
			"count":24,
			"type":"VEC2"
		},
		{
			"bufferView":13,
			"componentType":5126,
			"count":24,
			"type":"VEC4"
		},
		{
			"bufferView":14,
			"componentType":5126,
			"count":24,
			"max":[
				18.33724594116211,
				12.782669067382812,
				3.6332101821899414
			],
			"min":[
				-18.337265014648438,
				-12.782671928405762,
				-3.6332101821899414
			],
			"type":"VEC3"
		},
		{
			"bufferView":15,
			"componentType":5126,
			"count":24,
			"type":"VEC3"
		},
		{
			"bufferView":16,
			"componentType":5126,
			"count":24,
			"type":"VEC2"
		},
		{
			"bufferView":17,
			"componentType":5126,
			"count":24,
			"type":"VEC4"
		},
		{
			"bufferView":18,
			"componentType":5126,
			"count":24,
			"max":[
				18.33724594116211,
				12.782669067382812,
				3.6332101821899414
			],
			"min":[
				-18.337265014648438,
				-12.782671928405762,
				-3.6332101821899414
			],
			"type":"VEC3"
		},
		{
			"bufferView":19,
			"componentType":5126,
			"count":24,
			"type":"VEC3"
		},
		{
			"bufferView":20,
			"componentType":5126,
			"count":24,
			"type":"VEC2"
		},
		{
			"bufferView":21,
			"componentType":5126,
			"count":24,
			"type":"VEC4"
		},
		{
			"bufferView":22,
			"componentType":5126,
			"count":555,
			"max":[
				1.3671875,
				0.984375,
				0.8515625
			],
			"min":[
				-1.3671875,
				-0.984375,
				-0.8515625
			],
			"type":"VEC3"
		},
		{
			"bufferView":23,
			"componentType":5126,
			"count":555,
			"type":"VEC3"
		},
		{
			"bufferView":24,
			"componentType":5126,
			"count":555,
			"type":"VEC2"
		},
		{
			"bufferView":25,
			"componentType":5126,
			"count":555,
			"type":"VEC4"
		},
		{
			"bufferView":26,
			"componentType":5123,
			"count":2904,
			"type":"SCALAR"
		},
		{
			"bufferView":27,
			"componentType":5126,
			"count":559,
			"max":[
				0.9999997019767761,
				1,
				0.9999993443489075
			],
			"min":[
				-0.9999990463256836,
				-1,
				-1
			],
			"type":"VEC3"
		},
		{
			"bufferView":28,
			"componentType":5126,
			"count":559,
			"type":"VEC3"
		},
		{
			"bufferView":29,
			"componentType":5126,
			"count":559,
			"type":"VEC2"
		},
		{
			"bufferView":30,
			"componentType":5126,
			"count":559,
			"type":"VEC4"
		},
		{
			"bufferView":31,
			"componentType":5123,
			"count":2880,
			"type":"SCALAR"
		},
		{
			"bufferView":32,
			"componentType":5126,
			"count":240,
			"max":[
				0.9510578513145447,
				1,
				0.9999999403953552
			],
			"min":[
				-0.9510578513145447,
				-1,
				-0.9999999403953552
			],
			"type":"VEC3"
		},
		{
			"bufferView":33,
			"componentType":5126,
			"count":240,
			"type":"VEC3"
		},
		{
			"bufferView":34,
			"componentType":5126,
			"count":240,
			"type":"VEC2"
		},
		{
			"bufferView":35,
			"componentType":5126,
			"count":240,
			"type":"VEC4"
		},
		{
			"bufferView":36,
			"componentType":5123,
			"count":240,
			"type":"SCALAR"
		},
		{
			"bufferView":37,
			"componentType":5126,
			"count":24,
			"max":[
				5.9399213790893555,
				7.5410356521606445,
				2.936528444290161
			],
			"min":[
				-6.406635761260986,
				-1,
				-3.556792736053467
			],
			"type":"VEC3"
		},
		{
			"bufferView":38,
			"componentType":5126,
			"count":24,
			"type":"VEC3"
		},
		{
			"bufferView":39,
			"componentType":5126,
			"count":24,
			"type":"VEC2"
		},
		{
			"bufferView":40,
			"componentType":5126,
			"count":24,
			"type":"VEC4"
		},
		{
			"bufferView":41,
			"componentType":5123,
			"count":36,
			"type":"SCALAR"
		},
		{
			"bufferView":42,
			"componentType":5126,
			"count":448,
			"max":[
				2.8799891471862793,
				4.910154819488525,
				5.253430366516113
			],
			"min":[
				-2.571516513824463,
				-0.6187899708747864,
				-0.1980757713317871
			],
			"type":"VEC3"
		},
		{
			"bufferView":43,
			"componentType":5126,
			"count":448,
			"type":"VEC3"
		},
		{
			"bufferView":44,
			"componentType":5126,
			"count":448,
			"type":"VEC2"
		},
		{
			"bufferView":45,
			"componentType":5123,
			"count":756,
			"type":"SCALAR"
		},
		{
			"bufferView":46,
			"componentType":5126,
			"count":448,
			"max":[
				2.8799891471862793,
				4.910154819488525,
				5.253430366516113
			],
			"min":[
				-2.571516513824463,
				-0.6187899708747864,
				-0.1980757713317871
			],
			"type":"VEC3"
		},
		{
			"bufferView":47,
			"componentType":5126,
			"count":448,
			"type":"VEC3"
		},
		{
			"bufferView":48,
			"componentType":5126,
			"count":448,
			"type":"VEC2"
		},
		{
			"bufferView":49,
			"componentType":5126,
			"count":448,
			"max":[
				2.8799891471862793,
				4.910154819488525,
				5.253430366516113
			],
			"min":[
				-2.571516513824463,
				-0.6187899708747864,
				-0.1980757713317871
			],
			"type":"VEC3"
		},
		{
			"bufferView":50,
			"componentType":5126,
			"count":448,
			"type":"VEC3"
		},
		{
			"bufferView":51,
			"componentType":5126,
			"count":448,
			"type":"VEC2"
		}
	],
	"bufferViews":[
		{
			"buffer":0,
			"byteLength":288,
			"byteOffset":0,
			"target":34962
		},
		{
			"buffer":0,
			"byteLength":288,
			"byteOffset":288,
			"target":34962
		},
		{
			"buffer":0,
			"byteLength":192,
			"byteOffset":576,
			"target":34962
		},
		{
			"buffer":0,
			"byteLength":384,
			"byteOffset":768,
			"target":34962
		},
		{
			"buffer":0,
			"byteLength":72,
			"byteOffset":1152,
			"target":34963
		},
		{
			"buffer":0,
			"byteLength":48,
			"byteOffset":1224,
			"target":34962
		},
		{
			"buffer":0,
			"byteLength":48,
			"byteOffset":1272,
			"target":34962
		},
		{
			"buffer":0,
			"byteLength":32,
			"byteOffset":1320,
			"target":34962
		},
		{
			"buffer":0,
			"byteLength":64,
			"byteOffset":1352,
			"target":34962
		},
		{
			"buffer":0,
			"byteLength":12,
			"byteOffset":1416,
			"target":34963
		},
		{
			"buffer":0,
			"byteLength":288,
			"byteOffset":1428,
			"target":34962
		},
		{
			"buffer":0,
			"byteLength":288,
			"byteOffset":1716,
			"target":34962
		},
		{
			"buffer":0,
			"byteLength":192,
			"byteOffset":2004,
			"target":34962
		},
		{
			"buffer":0,
			"byteLength":384,
			"byteOffset":2196,
			"target":34962
		},
		{
			"buffer":0,
			"byteLength":288,
			"byteOffset":2580,
			"target":34962
		},
		{
			"buffer":0,
			"byteLength":288,
			"byteOffset":2868,
			"target":34962
		},
		{
			"buffer":0,
			"byteLength":192,
			"byteOffset":3156,
			"target":34962
		},
		{
			"buffer":0,
			"byteLength":384,
			"byteOffset":3348,
			"target":34962
		},
		{
			"buffer":0,
			"byteLength":288,
			"byteOffset":3732,
			"target":34962
		},
		{
			"buffer":0,
			"byteLength":288,
			"byteOffset":4020,
			"target":34962
		},
		{
			"buffer":0,
			"byteLength":192,
			"byteOffset":4308,
			"target":34962
		},
		{
			"buffer":0,
			"byteLength":384,
			"byteOffset":4500,
			"target":34962
		},
		{
			"buffer":0,
			"byteLength":6660,
			"byteOffset":4884,
			"target":34962
		},
		{
			"buffer":0,
			"byteLength":6660,
			"byteOffset":11544,
			"target":34962
		},
		{
			"buffer":0,
			"byteLength":4440,
			"byteOffset":18204,
			"target":34962
		},
		{
			"buffer":0,
			"byteLength":8880,
			"byteOffset":22644,
			"target":34962
		},
		{
			"buffer":0,
			"byteLength":5808,
			"byteOffset":31524,
			"target":34963
		},
		{
			"buffer":0,
			"byteLength":6708,
			"byteOffset":37332,
			"target":34962
		},
		{
			"buffer":0,
			"byteLength":6708,
			"byteOffset":44040,
			"target":34962
		},
		{
			"buffer":0,
			"byteLength":4472,
			"byteOffset":50748,
			"target":34962
		},
		{
			"buffer":0,
			"byteLength":8944,
			"byteOffset":55220,
			"target":34962
		},
		{
			"buffer":0,
			"byteLength":5760,
			"byteOffset":64164,
			"target":34963
		},
		{
			"buffer":0,
			"byteLength":2880,
			"byteOffset":69924,
			"target":34962
		},
		{
			"buffer":0,
			"byteLength":2880,
			"byteOffset":72804,
			"target":34962
		},
		{
			"buffer":0,
			"byteLength":1920,
			"byteOffset":75684,
			"target":34962
		},
		{
			"buffer":0,
			"byteLength":3840,
			"byteOffset":77604,
			"target":34962
		},
		{
			"buffer":0,
			"byteLength":480,
			"byteOffset":81444,
			"target":34963
		},
		{
			"buffer":0,
			"byteLength":288,
			"byteOffset":81924,
			"target":34962
		},
		{
			"buffer":0,
			"byteLength":288,
			"byteOffset":82212,
			"target":34962
		},
		{
			"buffer":0,
			"byteLength":192,
			"byteOffset":82500,
			"target":34962
		},
		{
			"buffer":0,
			"byteLength":384,
			"byteOffset":82692,
			"target":34962
		},
		{
			"buffer":0,
			"byteLength":72,
			"byteOffset":83076,
			"target":34963
		},
		{
			"buffer":0,
			"byteLength":5376,
			"byteOffset":83148,
			"target":34962
		},
		{
			"buffer":0,
			"byteLength":5376,
			"byteOffset":88524,
			"target":34962
		},
		{
			"buffer":0,
			"byteLength":3584,
			"byteOffset":93900,
			"target":34962
		},
		{
			"buffer":0,
			"byteLength":1512,
			"byteOffset":97484,
			"target":34963
		},
		{
			"buffer":0,
			"byteLength":5376,
			"byteOffset":98996,
			"target":34962
		},
		{
			"buffer":0,
			"byteLength":5376,
			"byteOffset":104372,
			"target":34962
		},
		{
			"buffer":0,
			"byteLength":3584,
			"byteOffset":109748,
			"target":34962
		},
		{
			"buffer":0,
			"byteLength":5376,
			"byteOffset":113332,
			"target":34962
		},
		{
			"buffer":0,
			"byteLength":5376,
			"byteOffset":118708,
			"target":34962
		},
		{
			"buffer":0,
			"byteLength":3584,
			"byteOffset":124084,
			"target":34962
		}
	],
	"samplers":[
		{
			"magFilter":9729,
			"minFilter":9987
		}
	],
	"buffers":[
		{
			"byteLength":127668,
			"uri":"myflattest.bin"
		}
	]
}
