{
	"asset":{
		"generator":"Khronos glTF Blender I/O v4.3.47",
		"version":"2.0"
	},
	"scene":0,
	"scenes":[
		{
			"name":"Scene",
			"nodes":[
				0,
				1,
				2,
				3
			]
		}
	],
	"nodes":[
		{
			"mesh":0,
			"name":"Plane",
			"scale":[
				45.538021087646484,
				0.60539710521698,
				30.121246337890625
			],
			"translation":[
				-4.533123016357422,
				9.80307674407959,
				22.482309341430664
			]
		},
		{
			"mesh":1,
			"name":"Sphere",
			"scale":[
				5.947075366973877,
				5.947075366973877,
				5.947075366973877
			],
			"translation":[
				-3.4319753646850586,
				10.884638786315918,
				17.760934829711914
			]
		},
		{
			"mesh":2,
			"name":"Cube",
			"scale":[
				2.3685834407806396,
				2.3685834407806396,
				2.3685834407806396
			],
			"translation":[
				0.8397207260131836,
				11.92410945892334,
				36.78521728515625
			]
		},
		{
			"mesh":3,
			"name":"Sphere.001",
			"rotation":[
				0.4767812192440033,
				0.2835860848426819,
				0.8150268197059631,
				0.16730178892612457
			],
			"scale":[
				3.8724522590637207,
				3.828298330307007,
				12.02796459197998
			],
			"translation":[
				-14.424495697021484,
				13.990720748901367,
				29.849504470825195
			]
		}
	],
	"materials":[
		{
			"doubleSided":true,
			"name":"Material",
			"pbrMetallicRoughness":{
				"baseColorFactor":[
					0.8001648187637329,
					0.7416776418685913,
					0.7165613770484924,
					1
				],
				"metallicFactor":0,
				"roughnessFactor":0
			}
		},
		{
			"doubleSided":true,
			"name":"Material.001",
			"pbrMetallicRoughness":{
				"baseColorFactor":[
					0.800054669380188,
					0.30679261684417725,
					0.021911252290010452,
					1
				],
				"roughnessFactor":0.33000001311302185
			}
		},
		{
			"doubleSided":true,
			"name":"Material.008",
			"pbrMetallicRoughness":{
				"baseColorFactor":[
					0.1124471127986908,
					0.14064283668994904,
					0.800133466720581,
					1
				],
				"metallicFactor":0,
				"roughnessFactor":0.056603774428367615
			}
		},
		{
			"doubleSided":true,
			"name":"Material.003",
			"pbrMetallicRoughness":{
				"baseColorFactor":[
					0.8000229597091675,
					0.2853725850582123,
					0.036179069429636,
					1
				],
				"metallicFactor":0,
				"roughnessFactor":0.4575471580028534
			}
		}
	],
	"meshes":[
		{
			"name":"Plane.001",
			"primitives":[
				{
					"attributes":{
						"POSITION":0,
						"NORMAL":1,
						"TEXCOORD_0":2
					},
					"indices":3,
					"material":0
				}
			]
		},
		{
			"name":"Sphere.001",
			"primitives":[
				{
					"attributes":{
						"POSITION":4,
						"NORMAL":5,
						"TEXCOORD_0":6
					},
					"indices":7,
					"material":1
				}
			]
		},
		{
			"name":"Cube",
			"primitives":[
				{
					"attributes":{
						"POSITION":8,
						"NORMAL":9,
						"TEXCOORD_0":10
					},
					"indices":11,
					"material":2
				}
			]
		},
		{
			"name":"Sphere.002",
			"primitives":[
				{
					"attributes":{
						"POSITION":12,
						"NORMAL":13,
						"TEXCOORD_0":14
					},
					"indices":7,
					"material":3
				}
			]
		}
	],
	"accessors":[
		{
			"bufferView":0,
			"componentType":5126,
			"count":4,
			"max":[
				1,
				0,
				1
			],
			"min":[
				-1,
				0,
				-1
			],
			"type":"VEC3"
		},
		{
			"bufferView":1,
			"componentType":5126,
			"count":4,
			"type":"VEC3"
		},
		{
			"bufferView":2,
			"componentType":5126,
			"count":4,
			"type":"VEC2"
		},
		{
			"bufferView":3,
			"componentType":5123,
			"count":6,
			"type":"SCALAR"
		},
		{
			"bufferView":4,
			"componentType":5126,
			"count":559,
			"max":[
				0.9999997019767761,
				1,
				0.9999993443489075
			],
			"min":[
				-0.9999990463256836,
				-1,
				-1
			],
			"type":"VEC3"
		},
		{
			"bufferView":5,
			"componentType":5126,
			"count":559,
			"type":"VEC3"
		},
		{
			"bufferView":6,
			"componentType":5126,
			"count":559,
			"type":"VEC2"
		},
		{
			"bufferView":7,
			"componentType":5123,
			"count":2880,
			"type":"SCALAR"
		},
		{
			"bufferView":8,
			"componentType":5126,
			"count":24,
			"max":[
				1,
				1,
				1
			],
			"min":[
				-1,
				-1,
				-1
			],
			"type":"VEC3"
		},
		{
			"bufferView":9,
			"componentType":5126,
			"count":24,
			"type":"VEC3"
		},
		{
			"bufferView":10,
			"componentType":5126,
			"count":24,
			"type":"VEC2"
		},
		{
			"bufferView":11,
			"componentType":5123,
			"count":36,
			"type":"SCALAR"
		},
		{
			"bufferView":12,
			"componentType":5126,
			"count":559,
			"max":[
				0.9999997019767761,
				1,
				0.9999993443489075
			],
			"min":[
				-0.9999990463256836,
				-1,
				-1
			],
			"type":"VEC3"
		},
		{
			"bufferView":13,
			"componentType":5126,
			"count":559,
			"type":"VEC3"
		},
		{
			"bufferView":14,
			"componentType":5126,
			"count":559,
			"type":"VEC2"
		}
	],
	"bufferViews":[
		{
			"buffer":0,
			"byteLength":48,
			"byteOffset":0,
			"target":34962
		},
		{
			"buffer":0,
			"byteLength":48,
			"byteOffset":48,
			"target":34962
		},
		{
			"buffer":0,
			"byteLength":32,
			"byteOffset":96,
			"target":34962
		},
		{
			"buffer":0,
			"byteLength":12,
			"byteOffset":128,
			"target":34963
		},
		{
			"buffer":0,
			"byteLength":6708,
			"byteOffset":140,
			"target":34962
		},
		{
			"buffer":0,
			"byteLength":6708,
			"byteOffset":6848,
			"target":34962
		},
		{
			"buffer":0,
			"byteLength":4472,
			"byteOffset":13556,
			"target":34962
		},
		{
			"buffer":0,
			"byteLength":5760,
			"byteOffset":18028,
			"target":34963
		},
		{
			"buffer":0,
			"byteLength":288,
			"byteOffset":23788,
			"target":34962
		},
		{
			"buffer":0,
			"byteLength":288,
			"byteOffset":24076,
			"target":34962
		},
		{
			"buffer":0,
			"byteLength":192,
			"byteOffset":24364,
			"target":34962
		},
		{
			"buffer":0,
			"byteLength":72,
			"byteOffset":24556,
			"target":34963
		},
		{
			"buffer":0,
			"byteLength":6708,
			"byteOffset":24628,
			"target":34962
		},
		{
			"buffer":0,
			"byteLength":6708,
			"byteOffset":31336,
			"target":34962
		},
		{
			"buffer":0,
			"byteLength":4472,
			"byteOffset":38044,
			"target":34962
		}
	],
	"buffers":[
		{
			"byteLength":42516,
			"uri":"myflattestsmooth.bin"
		}
	]
}
